# xmcd CD database file
# Copyright (C) 1995-1998 Ti Kan
#
# Track frame offsets:
#	150
#	13645
#	28719
#	42735
#	60407
#	76650
#	101600
#	116750
#	138275
#	150177
#	166135
#	178667
#	189985
#	210045
#	226950
#
# Disc length: 3334 seconds
#
# Revision: 1
# Processed by: cddbd v1.4b42PL1 Copyright (c) Steve Scherf et al.
# Submitted via: CDex 1.30Release
#
DISCID=ac0d040f
DTITLE=Knockout Greg and Blue Weather - 7-8-9-10 and Out
DYEAR=1998
DGENRE=Blues
TTITLE0=7, 8, 9, 10 and Out
TTITLE1=Susan Ann
TTITLE2=Teardrops on your letter
TTITLE3=One sweet letter
TTITLE4=Woldcat tamer
TTITLE5=Midnight hours journey
TTITLE6=You're too late
TTITLE7=Cookin' with the chef
TTITLE8=Baby, look what you're doing to me
TTITLE9=Blue Midnight
TTITLE10=Don't leave me at home
TTITLE11=Oooh la la
TTITLE12=5 months 3 weeks and 2 days
TTITLE13=That's it
TTITLE14=Jimmy's after hours
EXTD=YEAR: 1998 ID3G:   0
EXTT0=
EXTT1=
EXTT2=
EXTT3=
EXTT4=
EXTT5=
EXTT6=
EXTT7=
EXTT8=
EXTT9=
EXTT10=
EXTT11=
EXTT12=
EXTT13=
EXTT14=
PLAYORDER=
